<?xml version="1.0" encoding="utf-8"?>
<!-- Generator: Adobe Illustrator 16.0.0, SVG Export Plug-In . SVG Version: 6.00 Build 0)  -->
<!DOCTYPE svg PUBLIC "-//W3C//DTD SVG 1.1//EN" "http://www.w3.org/Graphics/SVG/1.1/DTD/svg11.dtd">
<svg version="1.1" id="Layer_1" xmlns="http://www.w3.org/2000/svg" xmlns:xlink="http://www.w3.org/1999/xlink" x="0px" y="0px"
	 width="286.4px" height="157.9px" viewBox="0 0 286.4 157.9" style="enable-background:new 0 0 286.4 157.9;" xml:space="preserve"
	>
<style type="text/css">
<![CDATA[
	.st0{clip-path:url(#SVGID_2_);fill:url(#SVGID_3_);}
	.st1{clip-path:url(#SVGID_8_);fill:#FFFFFF;}
	.st2{clip-path:url(#SVGID_5_);fill:url(#SVGID_6_);}
]]>
</style>
<g>
	<defs>
		<polygon id="SVGID_1_" points="99.1,107.4 91.5,83.8 91.5,83.8 111.6,69 111.6,69 86.7,69 79,45.3 79,45.3 79,45.3 79,45.3 
			79,45.3 71.2,69 71.2,69 46.2,69 46.2,69 66.4,83.8 58.8,107.4 58.8,107.4 58.8,107.4 58.8,107.4 58.8,107.4 79,92.8 99.1,107.4 
			99.1,107.4 99.1,107.4 99.2,107.4 		"/>
	</defs>
	<clipPath id="SVGID_2_">
		<use xlink:href="#SVGID_1_"  style="overflow:visible;"/>
	</clipPath>
	
		<linearGradient id="SVGID_3_" gradientUnits="userSpaceOnUse" x1="0" y1="157.8618" x2="1" y2="157.8618" gradientTransform="matrix(65.4375 0 0 -65.4375 46.1875 10406.4453)">
		<stop  offset="0" style="stop-color:#EE6825"/>
		<stop  offset="3.806600e-03" style="stop-color:#ED6525"/>
		<stop  offset="1" style="stop-color:#FAA21B"/>
	</linearGradient>
	<rect x="46.2" y="45.3" class="st0" width="65.4" height="62.2"/>
</g>
<g>
	<defs>
		<path id="SVGID_4_" d="M78.9,0C35.3,0,0,35.3,0,78.9c0,43.6,35.3,78.9,78.9,78.9c25.9,0,48.9-12.5,63.3-31.8l-23.3-16.9
			c-1.5,1.9-3.1,3.7-4.8,5.4l7.8,24l0,0.1l0,0l0,0l0,0l-20.5-14.8c-6.8,3.4-14.4,5.3-22.5,5.3c-8.1,0-15.7-1.9-22.4-5.3L36,138.6
			l0,0l0,0l0,0l0-0.1l7.7-23.9c-9.2-9.1-15-21.7-15-35.7c0-2.5,0.2-5,0.5-7.4l-20-14.7h0h24.6c7.1-14.5,21-25,37.6-27.5l7.5-23l0,0
			v0l7.5,23c13.3,2,25,9.3,32.7,19.6l23.3-16.9C128.1,12.6,105,0,78.9,0z"/>
	</defs>
	<clipPath id="SVGID_5_">
		<use xlink:href="#SVGID_4_"  style="overflow:visible;"/>
	</clipPath>
	
		<linearGradient id="SVGID_6_" gradientUnits="userSpaceOnUse" x1="0" y1="157.8618" x2="1" y2="157.8618" gradientTransform="matrix(142.4443 0 0 -142.4443 0 22565.5039)">
		<stop  offset="0" style="stop-color:#EE6825"/>
		<stop  offset="3.806600e-03" style="stop-color:#ED6525"/>
		<stop  offset="1" style="stop-color:#FAA21B"/>
	</linearGradient>
	<rect class="st2" width="142.4" height="157.9"/>
</g>
<g>
	<defs>
		<rect id="SVGID_7_" width="286.4" height="157.9"/>
	</defs>
	<clipPath id="SVGID_8_">
		<use xlink:href="#SVGID_7_"  style="overflow:visible;"/>
	</clipPath>
	<path class="st1" d="M120,89.6L120,89.6c0-7.1,5.5-12.3,12.4-12.3c5.2,0,8.6,2.5,10.6,6.1l-6.5,3.8c-0.9-1.7-2.1-2.8-4.2-2.8
		c-2.6,0-4.4,2.3-4.4,5.1v0.1c0,3,1.8,5.2,4.4,5.2c2.2,0,3.4-1.2,4.4-2.9l6.5,3.6c-2,3.5-5.3,6.3-11.1,6.3
		C125.6,101.7,120,96.8,120,89.6"/>
	<path class="st1" d="M145.2,89.6L145.2,89.6c0-6.9,5.6-12.3,12.8-12.3c7.2,0,12.7,5.4,12.7,12.1v0.1c0,6.8-5.6,12.2-12.8,12.2
		C150.7,101.7,145.2,96.4,145.2,89.6 M162.8,89.6L162.8,89.6c0-2.8-1.9-5.4-4.9-5.4c-3,0-4.9,2.5-4.9,5.2v0.1c0,2.8,1.9,5.3,4.9,5.3
		C161,94.8,162.8,92.3,162.8,89.6"/>
	<path class="st1" d="M174.3,90.7V77.8h8v12.8c0,2.9,1.5,4.1,3.6,4.1s3.6-1.1,3.6-4v-13h8v12.7c0,8-4.6,11.1-11.6,11.1
		C178.9,101.7,174.3,98.5,174.3,90.7"/>
	<polygon class="st1" points="201.6,77.8 209,77.8 217.3,88.1 217.3,77.8 225.1,77.8 225.1,101.2 218.1,101.2 209.4,90.4 
		209.4,101.2 201.6,101.2 	"/>
	<path class="st1" d="M228.9,89.6L228.9,89.6c0-7.1,5.5-12.3,12.4-12.3c5.2,0,8.6,2.5,10.6,6.1l-6.5,3.8c-0.9-1.7-2.1-2.8-4.2-2.8
		c-2.6,0-4.4,2.3-4.4,5.1v0.1c0,3,1.8,5.2,4.4,5.2c2.2,0,3.4-1.2,4.4-2.9l6.5,3.6c-2,3.5-5.3,6.3-11.1,6.3
		C234.5,101.7,228.9,96.8,228.9,89.6"/>
	<rect x="255.3" y="77.8" class="st1" width="7.8" height="23.4"/>
	<polygon class="st1" points="267.6,77.8 275.4,77.8 275.4,94.5 286.4,94.5 286.4,101.2 267.6,101.2 	"/>
	<polygon class="st1" points="127.8,69.5 126.4,69.5 126.4,58 123.3,58 123.3,56.7 131,56.7 131,58 127.8,58 	"/>
	<polygon class="st1" points="147.4,61.9 147.4,56.7 148.8,56.7 148.8,69.5 147.4,69.5 147.4,63.2 140.8,63.2 140.8,69.5 
		139.3,69.5 139.3,56.7 140.8,56.7 140.8,61.9 	"/>
	<polygon class="st1" points="158.3,56.7 165,56.7 165,58 159.7,58 159.7,61.8 164.8,61.8 164.8,63.1 159.7,63.1 159.7,68.2 
		165,68.2 165,69.5 158.3,69.5 	"/>
</g>
</svg>
